# xmcd
#
# Track frame offsets:
# 150
# 9950
# 19032
# 29300
# 41520
# 48320
# 59537
# 68230
# 79747
# 89255
# 103942
# 118072
# 131667
# 142492
# 154552
# 163927
# 174555
# 185580
# 197992
# 213300
# 226110
# 239037
# 254802
# 269250
# 280760
# 289662
# 297925
# 308540
# 321387
# 331570
#
# Disc length: 4549 seconds
#
#
# Revision: 0
# Processed by: cddbd v1.5.2PL0 Copyright (c) Steve Scherf et al.
# Submitted via: FreeRIP 2.90 
#
DISCID=c111c31e
DTITLE=Elvis Presley - The Essential 
DYEAR=1900
DGENRE=Rock and Roll
TTITLE0=Heartbreak Hotel
TTITLE1=Blue Suede Shoes
TTITLE2=Hound Dog
TTITLE3=Love Me Tender
TTITLE4=Party
TTITLE5=Jailhouse Rock
TTITLE6=Hard Headed Woman
TTITLE7=One Night
TTITLE8=A Big Hunk O'love
TTITLE9=It's Now Or Never
TTITLE10=Are You Lonesome Tonight?
TTITLE11=Can't Help Falling In Love
TTITLE12=Good Luck Charm
TTITLE13=I Want You, I Need You, I Love You
TTITLE14=Don't Be Cruel
TTITLE15=Devil In Disguise (You're The)
TTITLE16=Crying In The Chapel
TTITLE17=In The Getto
TTITLE18=Suspicious Minds
TTITLE19=Don't Cry Daddy
TTITLE20=Burning Love
TTITLE21=Always On My Mind
TTITLE22=My Boy
TTITLE23=Too Much
TTITLE24=All Shook Up
TTITLE25=Teddy Bear
TTITLE26=Paralised
TTITLE27=Don't
TTITLE28=Wear My Ring Around Your Neck
TTITLE29=King Kreole
EXTD=
EXTT0=
EXTT1=
EXTT2=
EXTT3=
EXTT4=
EXTT5=
EXTT6=
EXTT7=
EXTT8=
EXTT9=
EXTT10=
EXTT11=
EXTT12=
EXTT13=
EXTT14=
EXTT15=
EXTT16=
EXTT17=
EXTT18=
EXTT19=
EXTT20=
EXTT21=
EXTT22=
EXTT23=
EXTT24=
EXTT25=
EXTT26=
EXTT27=
EXTT28=
EXTT29=
PLAYORDER=
